<svg width="18" height="19" viewBox="0 0 18 19" fill="none" xmlns="http://www.w3.org/2000/svg">
<g clip-path="url(#clip0_101_501)">
<path fill-rule="evenodd" clip-rule="evenodd" d="M12.9518 2.48906C11.7451 1.76702 10.4289 1.40601 8.99939 1.40601C7.5711 1.40601 6.25365 1.76702 5.04645 2.48906C3.84107 3.21048 2.88523 4.18976 2.18138 5.42628C1.47631 6.66406 1.125 8.0138 1.125 9.47863C1.125 11.2372 1.62593 12.8184 2.62719 14.2234C3.62845 15.6261 4.92167 16.6009 6.50806 17.1386C6.6922 17.1738 6.82909 17.1493 6.91752 17.065C7.00657 16.9802 7.05078 16.8764 7.05078 16.7506L7.04594 16.1814C7.04231 15.8242 7.03988 15.5128 7.03988 15.2461L6.80487 15.2877C6.65464 15.316 6.46444 15.3279 6.23548 15.3241C6.00713 15.321 5.76908 15.2964 5.52315 15.2505C5.27905 15.2053 5.05069 15.1009 4.83868 14.9361C4.62669 14.7713 4.47646 14.5555 4.38742 14.2896L4.28445 14.0468C4.21661 13.8857 4.10879 13.7071 3.9622 13.5121C3.81501 13.3146 3.66661 13.1813 3.51639 13.1115L3.4437 13.0593C3.39647 13.024 3.35285 12.9825 3.31045 12.9335C3.26987 12.8844 3.23957 12.8354 3.21959 12.7863C3.19899 12.7359 3.21535 12.6963 3.26987 12.6649C3.32437 12.6322 3.42371 12.6177 3.56667 12.6177L3.77261 12.6492C3.9083 12.6769 4.0779 12.7611 4.2796 12.9007C4.48131 13.0417 4.64727 13.2234 4.7763 13.4479C4.93379 13.7348 5.12337 13.9536 5.34567 14.1046C5.56797 14.2556 5.7921 14.331 6.01803 14.331C6.24214 14.331 6.43779 14.3122 6.60194 14.2782C6.76549 14.243 6.91995 14.1901 7.06229 14.1209C7.12529 13.6504 7.29246 13.2894 7.56504 13.0372C7.17617 12.9945 6.82606 12.9316 6.51533 12.8473C6.20398 12.7636 5.88295 12.6271 5.55222 12.4372C5.21908 12.2486 4.94469 12.0146 4.72602 11.7328C4.50797 11.4548 4.32807 11.085 4.18875 10.6321C4.04943 10.1749 3.97856 9.65097 3.97856 9.05472C3.97856 8.20751 4.2475 7.48548 4.78781 6.88923C4.53462 6.25146 4.55763 5.53698 4.86049 4.74449C5.05735 4.68159 5.35113 4.72877 5.74121 4.88601C6.13069 5.04325 6.41538 5.17847 6.59649 5.28979C6.7782 5.40301 6.92359 5.49735 7.03261 5.57408C7.66681 5.39546 8.3222 5.30552 8.99939 5.30552C9.6766 5.30552 10.332 5.39672 10.968 5.57849L11.3574 5.32565C11.624 5.15772 11.9389 5.00489 12.3012 4.86337C12.6646 4.72374 12.942 4.68537 13.1335 4.74827C13.4406 5.54075 13.4684 6.25461 13.2153 6.893C13.7544 7.488 14.0245 8.21003 14.0245 9.05786C14.0245 9.65286 13.9542 10.1805 13.8143 10.6397C13.6749 11.0988 13.4933 11.4686 13.2704 11.7448C13.0487 12.0214 12.7725 12.2542 12.4405 12.4441C12.1092 12.6329 11.7863 12.7693 11.4774 12.8529C11.1661 12.9373 10.8172 13.0002 10.4259 13.0417C10.7814 13.3561 10.9589 13.8531 10.9589 14.5341V16.7525C10.9589 16.8783 11.0013 16.9827 11.0873 17.067C11.1721 17.1507 11.3071 17.1757 11.492 17.1405C13.0789 16.5996 14.3715 15.6285 15.3728 14.2222C16.374 12.8196 16.875 11.2366 16.875 9.47863C16.875 8.01443 16.5224 6.66406 15.8186 5.42691C15.1142 4.19039 14.1589 3.21111 12.9536 2.48969L12.9518 2.48906Z" fill="#8A8F98"/>
</g>
<defs>
<clipPath id="clip0_101_501">
<rect width="18" height="18" fill="white" transform="translate(0 0.28125)"/>
</clipPath>
</defs>
</svg>
