<svg width="18" height="19" viewBox="0 0 18 19" fill="none" xmlns="http://www.w3.org/2000/svg">
<g clip-path="url(#clip0_101_504)">
<path d="M4.44538 11.3625C4.44538 12.278 3.70612 13.0178 2.79144 13.0178C1.87677 13.0178 1.13751 12.278 1.13751 11.3625C1.13751 10.4471 1.87677 9.70728 2.79144 9.70728H4.44538V11.3625ZM5.27235 11.3625C5.27235 10.4471 6.01162 9.70728 6.92629 9.70728C7.84097 9.70728 8.58023 10.4471 8.58023 11.3625V15.5006C8.58023 16.4161 7.84097 17.156 6.92629 17.156C6.01162 17.156 5.27235 16.4161 5.27235 15.5006V11.3625Z" fill="#8A8F98"/>
<path d="M6.92631 4.71651C6.01164 4.71651 5.27237 3.97667 5.27237 3.06126C5.27237 2.14586 6.01164 1.40601 6.92631 1.40601C7.84099 1.40601 8.58025 2.14586 8.58025 3.06126V4.71651H6.92631ZM6.92631 5.55669C7.84099 5.55669 8.58025 6.29653 8.58025 7.21193C8.58025 8.12735 7.84099 8.86719 6.92631 8.86719H2.77894C1.86426 8.86719 1.125 8.12735 1.125 7.21193C1.125 6.29653 1.86426 5.55669 2.77894 5.55669H6.92631Z" fill="#8A8F98"/>
<path d="M13.5546 7.21193C13.5546 6.29653 14.2938 5.55669 15.2085 5.55669C16.1232 5.55669 16.8625 6.29653 16.8625 7.21193C16.8625 8.12735 16.1232 8.86719 15.2085 8.86719H13.5546V7.21193ZM12.7276 7.21193C12.7276 8.12735 11.9883 8.86719 11.0737 8.86719C10.159 8.86719 9.41974 8.12735 9.41974 7.21193V3.06126C9.41974 2.14586 10.159 1.40601 11.0737 1.40601C11.9883 1.40601 12.7276 2.14586 12.7276 3.06126V7.21193Z" fill="#8A8F98"/>
<path d="M11.0737 13.8454C11.9883 13.8454 12.7276 14.5852 12.7276 15.5006C12.7276 16.4161 11.9883 17.156 11.0737 17.156C10.159 17.156 9.41974 16.4161 9.41974 15.5006V13.8454H11.0737ZM11.0737 13.0178C10.159 13.0178 9.41974 12.278 9.41974 11.3625C9.41974 10.4471 10.159 9.70728 11.0737 9.70728H15.221C16.1358 9.70728 16.875 10.4471 16.875 11.3625C16.875 12.278 16.1358 13.0178 15.221 13.0178H11.0737Z" fill="#8A8F98"/>
</g>
<defs>
<clipPath id="clip0_101_504">
<rect width="18" height="18" fill="white" transform="translate(0 0.28125)"/>
</clipPath>
</defs>
</svg>
