<svg width="18" height="19" viewBox="0 0 18 19" fill="none" xmlns="http://www.w3.org/2000/svg">
<path d="M18 4.12944C17.3794 4.4001 16.7128 4.58299 16.0119 4.66566C16.7269 4.24429 17.2754 3.57566 17.534 2.77973C16.8651 3.17038 16.1242 3.45421 15.3357 3.60638C14.704 2.94506 13.8047 2.53101 12.8088 2.53101C10.8973 2.53101 9.34697 4.05701 9.34697 5.94001C9.34697 6.2063 9.37819 6.46527 9.43615 6.71547C6.55776 6.5728 4.00786 5.21578 2.3 3.15428C2.00271 3.65905 1.83178 4.24429 1.83178 4.86756C1.83178 6.04975 2.44343 7.09367 3.37168 7.70451C2.80388 7.68623 2.27026 7.53333 1.80353 7.27802V7.32192C1.80353 8.97301 2.99637 10.3505 4.58086 10.6636C4.28952 10.7412 3.98408 10.7821 3.66896 10.7821C3.446 10.7821 3.22824 10.7617 3.01717 10.7222C3.45789 12.0756 4.73618 13.0616 6.25157 13.0879C5.06617 14.0025 3.57309 14.5474 1.95144 14.5474C1.672 14.5474 1.39627 14.5313 1.125 14.4999C2.65747 15.4678 4.47681 16.0311 6.43141 16.0311C12.8006 16.0311 16.2825 10.8385 16.2825 6.33506C16.2825 6.18874 16.2787 6.04097 16.2721 5.89467C16.9483 5.4133 17.5355 4.81416 17.9985 4.13163L18 4.12944Z" fill="#8A8F98"/>
</svg>
